# xmcd
#
# Track frame offsets:
#	150
#	13520
#	30144
#	47128
#	59440
#
# Disc length: 1009 seconds
# Revision: 0
# Processed by: cddbd v1.5.2PL0 Copyright (c) Steve Scherf et al.
# Submitted via: dBpowerAMP V12.0
#
DISCID=3203ef05
DTITLE=Lily and The Drum - Limited Edition EP
DYEAR=2014
DGENRE=Blues Country
TTITLE0=As A Matter Of Fact
TTITLE1=Welcome Change
TTITLE2=Just Playing My Guitar
TTITLE3=Vincent And Valerie
TTITLE4=Shining Down On Me
EXTD=
EXTT0=
EXTT1=
EXTT2=
EXTT3=
EXTT4=
PLAYORDER=
